<?xml version="1.0" encoding="UTF-8"?>
<svg width="1248px" height="338px" viewBox="0 0 1248 338" version="1.1" xmlns="http://www.w3.org/2000/svg" xmlns:xlink="http://www.w3.org/1999/xlink">
    <!-- Generator: Sketch 49.3 (51167) - http://www.bohemiancoding.com/sketch -->
    <title>Group 4 Copy 2</title>
    <desc>Created with Sketch.</desc>
    <defs></defs>
    <g id="Page-1" stroke="none" stroke-width="1" fill="none" fill-rule="evenodd">
        <g id="Group-7" transform="translate(-396.000000, -416.000000)">
            <g id="Group-4-Copy-2" transform="translate(405.000000, 425.000000)">
                <g id="Page-1" stroke="#FFFFFF" stroke-linecap="round" stroke-linejoin="round" stroke-width="18">
                    <polygon id="Stroke-1" points="165.252 222.691 110 190.795 110 127 165.252 158.887"></polygon>
                    <polygon id="Stroke-2" points="165.262 159.897 165.252 223.691 110 255.598 110 319.402 220.514 255.598 220.514 128"></polygon>
                    <polygon id="Stroke-4" points="55.243 223.196 55.243 63.896 0 32 0 255.103 110.495 318.897 110.495 255.103"></polygon>
                    <polygon id="Stroke-6" points="55.243 0 0 31.907 55.243 63.804 110.495 31.907"></polygon>
                    <polygon id="Stroke-9" points="110.252 254.804 165.495 222.897 110.252 191 55 222.897"></polygon>
                    <polygon id="Stroke-10" points="55 223.334 110.253 191.437 110.253 32 55 63.906"></polygon>
                    <polygon id="Stroke-12" points="110 63 110 126.804 165.252 158.701 220.505 126.804"></polygon>
                </g>
                <path d="M333.916,113.264755 L408.305768,113.264755 C423.696755,113.264755 436.056183,116.995903 445.150857,124.458199 C454.012334,131.920496 458.443073,142.181154 458.443073,155.240173 C458.443073,164.568043 455.877908,172.72993 450.980776,179.492636 C445.850447,185.555752 439.087741,189.986491 430.692658,192.784852 C441.652906,194.650426 450.047989,199.314361 456.111105,206.310264 C462.174221,213.306167 465.438976,222.167644 465.438976,233.361089 C465.438976,249.684863 459.609057,261.811094 448.182415,269.739784 C438.388151,276.269294 424.862739,279.767245 407.839375,279.767245 L333.916,279.767245 L333.916,113.264755 Z M353.038135,129.355332 L353.038135,186.022146 L403.641833,186.022146 C415.301671,186.022146 424.163148,183.456981 430.226264,178.793046 C436.28938,173.895914 439.554135,166.666814 439.554135,157.105747 C439.554135,147.777876 436.522577,140.781973 430.459461,136.118038 C424.396345,131.454102 415.534868,129.355332 403.87503,129.355332 L353.038135,129.355332 Z M353.038135,201.879526 L353.038135,263.676668 L406.206997,263.676668 C417.866836,263.676668 426.961509,261.344701 433.957412,257.147159 C442.119299,252.01683 446.316841,243.854943 446.316841,233.127892 C446.316841,222.400841 442.585693,214.472151 435.58979,209.341822 C428.827084,204.211493 419.032819,201.879526 406.206997,201.879526 L353.038135,201.879526 Z M504.849229,113.731148 C508.813574,113.731148 512.078329,114.897132 514.87669,117.695493 C517.675051,120.027461 519.074232,123.292216 519.074232,127.489757 C519.074232,131.454102 517.675051,134.718857 514.87669,137.517218 C512.078329,140.082383 508.813574,141.481563 504.849229,141.481563 C500.884884,141.481563 497.620129,140.082383 494.821768,137.517218 C492.023407,134.718857 490.857423,131.454102 490.857423,127.489757 C490.857423,123.292216 492.023407,120.027461 494.821768,117.695493 C497.620129,114.897132 500.884884,113.731148 504.849229,113.731148 Z M495.521358,159.204518 L514.1771,159.204518 L514.1771,279.767245 L495.521358,279.767245 L495.521358,159.204518 Z M581.337768,120.260658 L581.337768,159.204518 L611.186954,159.204518 L611.186954,174.828701 L581.337768,174.828701 L581.337768,251.550437 C581.337768,255.981175 582.037358,259.24593 583.902933,261.111504 C585.53531,262.977078 588.566868,264.143062 592.76441,264.143062 L608.155396,264.143062 L608.155396,279.767245 L589.966049,279.767245 C580.171784,279.767245 572.942685,277.202081 568.745143,272.071752 C564.780798,267.407817 562.915224,260.645111 562.915224,251.550437 L562.915224,174.828701 L538.66276,174.828701 L538.66276,159.204518 L562.915224,159.204518 L562.915224,127.956151 L581.337768,120.260658 Z M634.273434,113.264755 L702.366889,113.264755 C740.611159,113.264755 759.733294,129.588528 759.733294,162.236075 C759.733294,195.116819 740.377962,211.67379 702.133693,211.67379 L653.395569,211.67379 L653.395569,279.767245 L634.273434,279.767245 L634.273434,113.264755 Z M653.395569,129.821725 L653.395569,195.116819 L701.200906,195.116819 C714.726318,195.116819 724.520582,192.318458 731.050092,186.954933 C737.346404,181.591407 740.611159,173.42952 740.611159,162.236075 C740.611159,151.042631 737.346404,142.880744 730.816895,137.983612 C724.287385,132.386889 714.493121,129.821725 701.200906,129.821725 L653.395569,129.821725 Z M835.522243,155.939763 C853.478394,155.939763 867.936593,162.002879 878.663644,174.595504 C888.924302,186.488539 894.054631,201.413132 894.054631,219.60248 C894.054631,237.558631 888.924302,252.483224 878.896841,264.143062 C867.936593,276.735687 853.478394,283.032 835.522243,283.032 C817.332895,283.032 803.107892,276.735687 792.380841,264.143062 C782.120183,252.483224 776.989854,237.558631 776.989854,219.60248 C776.989854,201.413132 782.120183,186.488539 792.380841,174.595504 C803.107892,162.002879 817.332895,155.939763 835.522243,155.939763 Z M835.522243,171.563946 C822.69642,171.563946 812.66896,176.461078 805.673057,186.255342 C799.143547,195.116819 796.111989,206.077067 796.111989,219.60248 C796.111989,232.894695 799.143547,243.854943 805.673057,252.71642 C812.66896,262.510685 822.69642,267.407817 835.522243,267.407817 C848.114868,267.407817 858.142329,262.510685 865.604625,252.71642 C871.900938,243.854943 875.165693,232.661499 875.165693,219.60248 C875.165693,206.077067 871.900938,195.116819 865.604625,186.255342 C858.142329,176.461078 848.114868,171.563946 835.522243,171.563946 Z M971.24276,155.939763 C977.77227,155.939763 983.368992,156.87255 987.79973,158.738124 L987.79973,177.393865 C981.736615,175.528291 975.673499,174.828701 969.84358,174.828701 C960.515709,174.828701 952.587019,178.793046 946.290706,187.188129 C939.761197,195.116819 936.729639,204.677887 936.729639,215.871332 L936.729639,279.767245 L918.307094,279.767245 L918.307094,159.204518 L936.729639,159.204518 L936.729639,180.192226 C939.994394,173.196323 944.191935,167.599601 949.322264,163.635256 C955.618577,158.504927 962.847677,155.939763 971.24276,155.939763 Z M1035.60507,120.260658 L1035.60507,159.204518 L1065.45425,159.204518 L1065.45425,174.828701 L1035.60507,174.828701 L1035.60507,251.550437 C1035.60507,255.981175 1036.30466,259.24593 1038.17023,261.111504 C1039.80261,262.977078 1042.83417,264.143062 1047.03171,264.143062 L1062.4227,264.143062 L1062.4227,279.767245 L1044.23335,279.767245 C1034.43908,279.767245 1027.20998,277.202081 1023.01244,272.071752 C1019.0481,267.407817 1017.18252,260.645111 1017.18252,251.550437 L1017.18252,174.828701 L992.930059,174.828701 L992.930059,159.204518 L1017.18252,159.204518 L1017.18252,127.956151 L1035.60507,120.260658 Z M1138.67804,155.939763 C1155.9346,155.939763 1168.52722,160.370501 1176.92231,169.465175 C1183.91821,177.393865 1187.64936,188.354113 1187.64936,202.345919 L1187.64936,279.767245 L1170.1596,279.767245 L1170.1596,259.479127 C1165.49567,266.008636 1159.19935,271.372162 1151.73706,275.569704 C1142.87558,280.466836 1132.84812,283.032 1121.65467,283.032 C1109.52844,283.032 1099.96737,280.000442 1092.73827,273.937326 C1085.27598,267.641013 1081.54483,259.479127 1081.54483,249.684863 C1081.54483,235.926253 1086.90836,225.665596 1098.1018,218.669693 C1107.89606,212.140183 1121.88787,208.642232 1140.07722,208.409035 L1168.99362,207.942642 L1168.99362,201.646329 C1168.99362,181.35821 1158.49976,171.330749 1137.51205,171.330749 C1128.65058,171.330749 1121.42148,172.963127 1115.82475,176.694275 C1109.52844,180.425423 1105.5641,186.255342 1103.69852,193.950836 L1085.27598,192.551655 C1087.84114,179.95903 1094.13746,170.397962 1103.93172,164.334846 C1112.7932,158.738124 1124.21984,155.939763 1138.67804,155.939763 Z M1168.99362,221.934447 L1141.2432,222.400841 C1114.19238,222.867235 1100.66696,231.728712 1100.66696,249.218469 C1100.66696,254.815191 1102.76574,259.24593 1107.42967,262.977078 C1112.09361,266.47503 1118.15672,268.340604 1125.61902,268.340604 C1137.04566,268.340604 1147.07312,264.609456 1155.9346,257.147159 C1164.56288,249.918059 1168.99362,241.522976 1168.99362,232.195105 L1168.99362,221.934447 Z M1220.29691,110 L1238.71945,110 L1238.71945,279.767245 L1220.29691,279.767245 L1220.29691,110 Z" id="BitPortal" fill="#FFFFFF"></path>
            </g>
        </g>
    </g>
</svg>